<svg width="100" height="124" viewBox="0 0 100 124" fill="none" xmlns="http://www.w3.org/2000/svg">
<path d="M100 50C100 77.6142 77.6142 100 50 100C22.3858 100 0 77.6142 0 50C0 22.3858 22.3858 0 50 0C77.6142 0 100 22.3858 100 50ZM14 50C14 69.8822 30.1177 86 50 86C69.8822 86 86 69.8822 86 50C86 30.1177 69.8822 14 50 14C30.1177 14 14 30.1177 14 50Z" fill="#928A97" fill-opacity="0.27"/>
<path d="M50 100C38.7691 100 27.8652 96.2189 19.0453 89.2658C10.2254 82.3128 4.00332 72.5929 1.3815 61.6723C-1.24031 50.7516 -0.109103 39.2663 4.59284 29.067C9.29479 18.8677 17.2936 10.5484 27.3005 5.44967C37.3073 0.350931 48.7394 -1.23031 59.7545 0.960736C70.7697 3.15178 80.7264 8.98752 88.0203 17.5276C95.3142 26.0677 99.5205 36.8147 99.9614 48.037C100.402 59.2593 97.0522 70.3032 90.4509 79.3893L79.1246 71.1603C83.8776 64.6183 86.2897 56.6667 85.9722 48.5866C85.6548 40.5066 82.6262 32.7687 77.3746 26.6199C72.123 20.471 64.9542 16.2693 57.0233 14.6917C49.0923 13.1142 40.8613 14.2527 33.6563 17.9238C26.4514 21.5949 20.6922 27.5847 17.3068 34.9282C13.9214 42.2718 13.107 50.5412 14.9947 58.404C16.8824 66.2669 21.3623 73.2652 27.7126 78.2714C34.0629 83.2776 41.9137 86 50 86L50 100Z" fill="#000C24"/>
<path d="M39.194 53.192C39.838 53.192 40.418 53.068 40.934 52.82C41.45 52.568 41.858 52.224 42.158 51.788C42.462 51.352 42.614 50.858 42.614 50.306C42.614 49.722 42.45 49.198 42.122 48.734C41.798 48.266 41.362 47.922 40.814 47.702C41.242 47.49 41.582 47.186 41.834 46.79C42.09 46.39 42.218 45.95 42.218 45.47C42.218 45.074 42.132 44.72 41.96 44.408C41.792 44.092 41.562 43.824 41.27 43.604C40.982 43.384 40.658 43.216 40.298 43.1C39.942 42.98 39.574 42.92 39.194 42.92C38.634 42.92 38.126 43.032 37.67 43.256C37.214 43.48 36.85 43.784 36.578 44.168C36.31 44.552 36.176 44.988 36.176 45.476C36.176 45.94 36.3 46.372 36.548 46.772C36.796 47.172 37.138 47.482 37.574 47.702C37.038 47.918 36.604 48.26 36.272 48.728C35.944 49.192 35.78 49.716 35.78 50.3C35.78 50.856 35.93 51.352 36.23 51.788C36.534 52.224 36.944 52.568 37.46 52.82C37.976 53.068 38.554 53.192 39.194 53.192ZM39.194 47.114C38.766 47.114 38.408 46.974 38.12 46.694C37.836 46.41 37.694 46.054 37.694 45.626C37.694 45.198 37.838 44.84 38.126 44.552C38.414 44.264 38.77 44.12 39.194 44.12C39.626 44.12 39.984 44.264 40.268 44.552C40.556 44.84 40.7 45.198 40.7 45.626C40.7 46.054 40.558 46.41 40.274 46.694C39.99 46.974 39.63 47.114 39.194 47.114ZM39.194 51.824C38.69 51.824 38.28 51.664 37.964 51.344C37.648 51.024 37.49 50.622 37.49 50.138C37.49 49.806 37.564 49.514 37.712 49.262C37.864 49.006 38.068 48.806 38.324 48.662C38.584 48.518 38.874 48.446 39.194 48.446C39.686 48.446 40.094 48.606 40.418 48.926C40.742 49.246 40.904 49.652 40.904 50.144C40.904 50.624 40.746 51.024 40.43 51.344C40.114 51.664 39.702 51.824 39.194 51.824ZM47.4046 53.186C48.0766 53.186 48.6846 53.054 49.2286 52.79C49.7766 52.522 50.2106 52.136 50.5306 51.632C50.8546 51.128 51.0166 50.516 51.0166 49.796C51.0166 49.02 50.8106 48.368 50.3986 47.84C49.9866 47.308 49.4426 46.968 48.7666 46.82C47.9706 46.572 47.1466 46.596 46.2946 46.892L46.6666 44.48H50.3806V43.1H45.3286L44.5006 48.422C45.1446 47.89 45.8806 47.624 46.7086 47.624C47.2526 47.624 47.7306 47.716 48.1426 47.9C48.5546 48.08 48.8766 48.34 49.1086 48.68C49.3406 49.016 49.4566 49.418 49.4566 49.886C49.4566 50.482 49.2686 50.962 48.8926 51.326C48.5166 51.69 48.0126 51.872 47.3806 51.872C46.8486 51.872 46.3826 51.742 45.9826 51.482C45.5826 51.218 45.3106 50.868 45.1666 50.432L43.9186 51.038C44.0866 51.494 44.3426 51.882 44.6866 52.202C45.0346 52.522 45.4426 52.766 45.9106 52.934C46.3786 53.102 46.8766 53.186 47.4046 53.186ZM55.135 47.648C55.619 47.648 56.053 47.548 56.437 47.348C56.825 47.148 57.131 46.87 57.355 46.514C57.583 46.158 57.697 45.748 57.697 45.284C57.697 44.82 57.583 44.41 57.355 44.054C57.131 43.698 56.825 43.42 56.437 43.22C56.053 43.02 55.619 42.92 55.135 42.92C54.651 42.92 54.215 43.02 53.827 43.22C53.439 43.42 53.131 43.698 52.903 44.054C52.679 44.41 52.567 44.82 52.567 45.284C52.567 45.748 52.679 46.158 52.903 46.514C53.131 46.87 53.439 47.148 53.827 47.348C54.215 47.548 54.651 47.648 55.135 47.648ZM54.691 53H55.735L61.495 43.1H60.451L54.691 53ZM55.135 46.718C54.731 46.718 54.391 46.584 54.115 46.316C53.839 46.048 53.701 45.704 53.701 45.284C53.701 44.864 53.839 44.52 54.115 44.252C54.391 43.984 54.731 43.85 55.135 43.85C55.539 43.85 55.879 43.984 56.155 44.252C56.431 44.516 56.569 44.86 56.569 45.284C56.569 45.704 56.431 46.048 56.155 46.316C55.879 46.584 55.539 46.718 55.135 46.718ZM61.051 53.186C61.535 53.186 61.971 53.086 62.359 52.886C62.747 52.686 63.053 52.408 63.277 52.052C63.505 51.696 63.619 51.286 63.619 50.822C63.619 50.358 63.505 49.948 63.277 49.592C63.053 49.236 62.747 48.958 62.359 48.758C61.971 48.558 61.535 48.458 61.051 48.458C60.567 48.458 60.131 48.558 59.743 48.758C59.355 48.958 59.047 49.236 58.819 49.592C58.595 49.948 58.483 50.358 58.483 50.822C58.483 51.286 58.595 51.696 58.819 52.052C59.047 52.408 59.355 52.686 59.743 52.886C60.131 53.086 60.567 53.186 61.051 53.186ZM61.051 52.256C60.651 52.256 60.311 52.122 60.031 51.854C59.755 51.586 59.617 51.242 59.617 50.822C59.617 50.402 59.755 50.058 60.031 49.79C60.311 49.522 60.651 49.388 61.051 49.388C61.455 49.388 61.795 49.522 62.071 49.79C62.347 50.058 62.485 50.402 62.485 50.822C62.485 51.242 62.347 51.586 62.071 51.854C61.795 52.122 61.455 52.256 61.051 52.256Z" fill="#928A97"/>
<path d="M36.247 120.224C36.9704 120.224 37.6494 120.119 38.284 119.909C38.9234 119.699 39.4694 119.428 39.922 119.097L39.117 117.543C38.767 117.823 38.3517 118.04 37.871 118.194C37.3904 118.348 36.884 118.425 36.352 118.425C35.512 118.425 34.763 118.241 34.105 117.872C33.447 117.499 32.929 116.997 32.551 116.367C32.173 115.732 31.984 115.021 31.984 114.232C31.984 113.443 32.173 112.734 32.551 112.104C32.929 111.469 33.447 110.968 34.105 110.599C34.763 110.226 35.512 110.039 36.352 110.039C36.884 110.039 37.3904 110.116 37.871 110.27C38.3517 110.424 38.767 110.641 39.117 110.921L39.922 109.367C39.4554 109.026 38.9024 108.753 38.263 108.548C37.6237 108.343 36.947 108.24 36.233 108.24C35.365 108.24 34.553 108.394 33.797 108.702C33.0457 109.005 32.383 109.43 31.809 109.976C31.2397 110.522 30.794 111.159 30.472 111.887C30.15 112.61 29.989 113.392 29.989 114.232C29.989 115.072 30.15 115.856 30.472 116.584C30.794 117.307 31.2397 117.942 31.809 118.488C32.383 119.034 33.048 119.461 33.804 119.769C34.56 120.072 35.3744 120.224 36.247 120.224ZM44.9732 120.224C45.7619 120.224 46.4572 120.091 47.0592 119.825C47.6659 119.554 48.1395 119.165 48.4802 118.656C48.8255 118.143 48.9982 117.524 48.9982 116.801C48.9982 116.115 48.8442 115.557 48.5362 115.128C48.2329 114.694 47.8152 114.33 47.2832 114.036C46.7512 113.737 46.1445 113.453 45.4632 113.182C45.1179 113.047 44.7982 112.914 44.5042 112.783C44.2149 112.648 43.9839 112.482 43.8112 112.286C43.6385 112.085 43.5522 111.822 43.5522 111.495C43.5522 111.075 43.7085 110.706 44.0212 110.389C44.3339 110.067 44.7772 109.906 45.3512 109.906C45.8412 109.906 46.2962 110.013 46.7162 110.228C47.1362 110.438 47.4769 110.681 47.7382 110.956L48.5362 109.563C48.3169 109.334 48.0369 109.12 47.6962 108.919C47.3602 108.718 46.9869 108.555 46.5762 108.429C46.1702 108.303 45.7502 108.24 45.3162 108.24C44.6115 108.24 43.9932 108.394 43.4612 108.702C42.9292 109.01 42.5139 109.414 42.2152 109.913C41.9212 110.412 41.7742 110.951 41.7742 111.53C41.7742 112.062 41.8955 112.515 42.1382 112.888C42.3809 113.257 42.6889 113.567 43.0622 113.819C43.4402 114.066 43.8275 114.274 44.2242 114.442C44.7795 114.671 45.2672 114.888 45.6872 115.093C46.1072 115.294 46.4339 115.529 46.6672 115.8C46.9005 116.066 47.0172 116.414 47.0172 116.843C47.0172 117.398 46.8259 117.818 46.4432 118.103C46.0605 118.383 45.5869 118.523 45.0222 118.523C44.4902 118.523 44.0165 118.423 43.6012 118.222C43.1859 118.017 42.8312 117.783 42.5372 117.522C42.2432 117.261 42.0099 117.041 41.8372 116.864L40.8712 118.348C40.9925 118.488 41.1699 118.663 41.4032 118.873C41.6365 119.078 41.9235 119.286 42.2642 119.496C42.6095 119.701 43.0062 119.874 43.4542 120.014C43.9069 120.154 44.4132 120.224 44.9732 120.224ZM54.2564 120.224C55.0451 120.224 55.7404 120.091 56.3424 119.825C56.9491 119.554 57.4227 119.165 57.7634 118.656C58.1087 118.143 58.2814 117.524 58.2814 116.801C58.2814 116.115 58.1274 115.557 57.8194 115.128C57.5161 114.694 57.0984 114.33 56.5664 114.036C56.0344 113.737 55.4277 113.453 54.7464 113.182C54.4011 113.047 54.0814 112.914 53.7874 112.783C53.4981 112.648 53.2671 112.482 53.0944 112.286C52.9217 112.085 52.8354 111.822 52.8354 111.495C52.8354 111.075 52.9917 110.706 53.3044 110.389C53.6171 110.067 54.0604 109.906 54.6344 109.906C55.1244 109.906 55.5794 110.013 55.9994 110.228C56.4194 110.438 56.7601 110.681 57.0214 110.956L57.8194 109.563C57.6001 109.334 57.3201 109.12 56.9794 108.919C56.6434 108.718 56.2701 108.555 55.8594 108.429C55.4534 108.303 55.0334 108.24 54.5994 108.24C53.8947 108.24 53.2764 108.394 52.7444 108.702C52.2124 109.01 51.7971 109.414 51.4984 109.913C51.2044 110.412 51.0574 110.951 51.0574 111.53C51.0574 112.062 51.1787 112.515 51.4214 112.888C51.6641 113.257 51.9721 113.567 52.3454 113.819C52.7234 114.066 53.1107 114.274 53.5074 114.442C54.0627 114.671 54.5504 114.888 54.9704 115.093C55.3904 115.294 55.7171 115.529 55.9504 115.8C56.1837 116.066 56.3004 116.414 56.3004 116.843C56.3004 117.398 56.1091 117.818 55.7264 118.103C55.3437 118.383 54.8701 118.523 54.3054 118.523C53.7734 118.523 53.2997 118.423 52.8844 118.222C52.4691 118.017 52.1144 117.783 51.8204 117.522C51.5264 117.261 51.2931 117.041 51.1204 116.864L50.1544 118.348C50.2757 118.488 50.4531 118.663 50.6864 118.873C50.9197 119.078 51.2067 119.286 51.5474 119.496C51.8927 119.701 52.2894 119.874 52.7374 120.014C53.1901 120.154 53.6964 120.224 54.2564 120.224ZM63.666 120.224C64.4547 120.224 65.143 120.072 65.731 119.769C66.319 119.461 66.7764 119.041 67.103 118.509C67.4297 117.977 67.593 117.375 67.593 116.703C67.593 116.04 67.432 115.469 67.11 114.988C66.788 114.507 66.3704 114.15 65.857 113.917C66.2957 113.679 66.641 113.345 66.893 112.916C67.145 112.482 67.271 112.001 67.271 111.474C67.271 110.858 67.117 110.307 66.809 109.822C66.5057 109.332 66.088 108.947 65.556 108.667C65.0287 108.382 64.429 108.24 63.757 108.24C63.169 108.24 62.6277 108.354 62.133 108.583C61.6384 108.812 61.2254 109.129 60.894 109.535C60.5627 109.936 60.3457 110.403 60.243 110.935L61.72 111.579C61.7527 111.229 61.8624 110.916 62.049 110.641C62.2357 110.361 62.476 110.142 62.77 109.983C63.064 109.82 63.3837 109.738 63.729 109.738C64.0744 109.738 64.387 109.817 64.667 109.976C64.947 110.13 65.1687 110.342 65.332 110.613C65.5 110.879 65.584 111.178 65.584 111.509C65.584 111.845 65.4977 112.158 65.325 112.447C65.157 112.732 64.9307 112.963 64.646 113.14C64.3614 113.317 64.0417 113.406 63.687 113.406H63.211V114.659C63.337 114.612 63.498 114.589 63.694 114.589C64.072 114.589 64.415 114.682 64.723 114.869C65.031 115.056 65.276 115.31 65.458 115.632C65.6447 115.954 65.738 116.316 65.738 116.717C65.738 117.286 65.549 117.746 65.171 118.096C64.7977 118.441 64.2984 118.614 63.673 118.614C63.0057 118.614 62.462 118.423 62.042 118.04C61.622 117.653 61.398 117.153 61.37 116.542L59.648 117.305C59.774 117.888 60.0214 118.399 60.39 118.838C60.7634 119.277 61.23 119.617 61.79 119.86C62.35 120.103 62.9754 120.224 63.666 120.224Z" fill="#000C24"/>
</svg>
