<svg width="100" height="124" viewBox="0 0 100 124" fill="none" xmlns="http://www.w3.org/2000/svg">
<path d="M100 50C100 77.6142 77.6142 100 50 100C22.3858 100 0 77.6142 0 50C0 22.3858 22.3858 0 50 0C77.6142 0 100 22.3858 100 50ZM14 50C14 69.8822 30.1177 86 50 86C69.8822 86 86 69.8822 86 50C86 30.1177 69.8822 14 50 14C30.1177 14 14 30.1177 14 50Z" fill="#928A97" fill-opacity="0.27"/>
<path d="M50 100C39.441 100 29.1531 96.6572 20.6107 90.4508C12.0684 84.2444 5.71007 75.493 2.44717 65.4508C-0.815726 55.4087 -0.815724 44.5913 2.44718 34.5491C5.71008 24.507 12.0684 15.7555 20.6107 9.54914C29.1531 3.34274 39.441 -2.17134e-06 50 0C60.559 2.17135e-06 70.8469 3.34275 79.3893 9.54916C87.9316 15.7556 94.2899 24.507 97.5528 34.5492C100.816 44.5913 100.816 55.4087 97.5528 65.4509L84.238 61.1246C86.5873 53.8943 86.5873 46.1058 84.238 38.8754C81.8888 31.645 77.3108 25.344 71.1603 20.8754C65.0098 16.4068 57.6025 14 50 14C42.3976 14 34.9902 16.4068 28.8397 20.8754C22.6892 25.344 18.1113 31.645 15.762 38.8754C13.4127 46.1057 13.4127 53.8942 15.762 61.1246C18.1112 68.355 22.6892 74.656 28.8397 79.1246C34.9902 83.5932 42.3975 86 50 86L50 100Z" fill="#000C24"/>
<path d="M38.194 53.192C38.838 53.192 39.418 53.068 39.934 52.82C40.45 52.568 40.858 52.224 41.158 51.788C41.462 51.352 41.614 50.858 41.614 50.306C41.614 49.722 41.45 49.198 41.122 48.734C40.798 48.266 40.362 47.922 39.814 47.702C40.242 47.49 40.582 47.186 40.834 46.79C41.09 46.39 41.218 45.95 41.218 45.47C41.218 45.074 41.132 44.72 40.96 44.408C40.792 44.092 40.562 43.824 40.27 43.604C39.982 43.384 39.658 43.216 39.298 43.1C38.942 42.98 38.574 42.92 38.194 42.92C37.634 42.92 37.126 43.032 36.67 43.256C36.214 43.48 35.85 43.784 35.578 44.168C35.31 44.552 35.176 44.988 35.176 45.476C35.176 45.94 35.3 46.372 35.548 46.772C35.796 47.172 36.138 47.482 36.574 47.702C36.038 47.918 35.604 48.26 35.272 48.728C34.944 49.192 34.78 49.716 34.78 50.3C34.78 50.856 34.93 51.352 35.23 51.788C35.534 52.224 35.944 52.568 36.46 52.82C36.976 53.068 37.554 53.192 38.194 53.192ZM38.194 47.114C37.766 47.114 37.408 46.974 37.12 46.694C36.836 46.41 36.694 46.054 36.694 45.626C36.694 45.198 36.838 44.84 37.126 44.552C37.414 44.264 37.77 44.12 38.194 44.12C38.626 44.12 38.984 44.264 39.268 44.552C39.556 44.84 39.7 45.198 39.7 45.626C39.7 46.054 39.558 46.41 39.274 46.694C38.99 46.974 38.63 47.114 38.194 47.114ZM38.194 51.824C37.69 51.824 37.28 51.664 36.964 51.344C36.648 51.024 36.49 50.622 36.49 50.138C36.49 49.806 36.564 49.514 36.712 49.262C36.864 49.006 37.068 48.806 37.324 48.662C37.584 48.518 37.874 48.446 38.194 48.446C38.686 48.446 39.094 48.606 39.418 48.926C39.742 49.246 39.904 49.652 39.904 50.144C39.904 50.624 39.746 51.024 39.43 51.344C39.114 51.664 38.702 51.824 38.194 51.824ZM47.2446 53.192C48.0526 53.192 48.7606 52.978 49.3686 52.55C49.9766 52.118 50.4506 51.516 50.7906 50.744C51.1306 49.972 51.3006 49.076 51.3006 48.056C51.3006 47.036 51.1306 46.14 50.7906 45.368C50.4506 44.596 49.9766 43.996 49.3686 43.568C48.7606 43.136 48.0526 42.92 47.2446 42.92C46.4366 42.92 45.7286 43.136 45.1206 43.568C44.5126 43.996 44.0386 44.596 43.6986 45.368C43.3586 46.14 43.1886 47.036 43.1886 48.056C43.1886 49.076 43.3586 49.972 43.6986 50.744C44.0386 51.516 44.5126 52.118 45.1206 52.55C45.7286 52.978 46.4366 53.192 47.2446 53.192ZM47.2446 51.8C46.7566 51.8 46.3326 51.648 45.9726 51.344C45.6126 51.04 45.3346 50.608 45.1386 50.048C44.9426 49.484 44.8446 48.82 44.8446 48.056C44.8446 47.288 44.9426 46.624 45.1386 46.064C45.3346 45.504 45.6126 45.072 45.9726 44.768C46.3326 44.464 46.7566 44.312 47.2446 44.312C47.7326 44.312 48.1566 44.464 48.5166 44.768C48.8766 45.072 49.1546 45.504 49.3506 46.064C49.5466 46.624 49.6446 47.288 49.6446 48.056C49.6446 48.82 49.5466 49.484 49.3506 50.048C49.1546 50.608 48.8766 51.04 48.5166 51.344C48.1566 51.648 47.7326 51.8 47.2446 51.8ZM55.4358 47.648C55.9198 47.648 56.3538 47.548 56.7378 47.348C57.1258 47.148 57.4318 46.87 57.6558 46.514C57.8838 46.158 57.9978 45.748 57.9978 45.284C57.9978 44.82 57.8838 44.41 57.6558 44.054C57.4318 43.698 57.1258 43.42 56.7378 43.22C56.3538 43.02 55.9198 42.92 55.4358 42.92C54.9518 42.92 54.5158 43.02 54.1278 43.22C53.7398 43.42 53.4318 43.698 53.2038 44.054C52.9798 44.41 52.8678 44.82 52.8678 45.284C52.8678 45.748 52.9798 46.158 53.2038 46.514C53.4318 46.87 53.7398 47.148 54.1278 47.348C54.5158 47.548 54.9518 47.648 55.4358 47.648ZM54.9918 53H56.0358L61.7958 43.1H60.7518L54.9918 53ZM55.4358 46.718C55.0318 46.718 54.6918 46.584 54.4158 46.316C54.1398 46.048 54.0018 45.704 54.0018 45.284C54.0018 44.864 54.1398 44.52 54.4158 44.252C54.6918 43.984 55.0318 43.85 55.4358 43.85C55.8398 43.85 56.1798 43.984 56.4558 44.252C56.7318 44.516 56.8698 44.86 56.8698 45.284C56.8698 45.704 56.7318 46.048 56.4558 46.316C56.1798 46.584 55.8398 46.718 55.4358 46.718ZM61.3518 53.186C61.8358 53.186 62.2718 53.086 62.6598 52.886C63.0478 52.686 63.3538 52.408 63.5778 52.052C63.8058 51.696 63.9198 51.286 63.9198 50.822C63.9198 50.358 63.8058 49.948 63.5778 49.592C63.3538 49.236 63.0478 48.958 62.6598 48.758C62.2718 48.558 61.8358 48.458 61.3518 48.458C60.8678 48.458 60.4318 48.558 60.0438 48.758C59.6558 48.958 59.3478 49.236 59.1198 49.592C58.8958 49.948 58.7838 50.358 58.7838 50.822C58.7838 51.286 58.8958 51.696 59.1198 52.052C59.3478 52.408 59.6558 52.686 60.0438 52.886C60.4318 53.086 60.8678 53.186 61.3518 53.186ZM61.3518 52.256C60.9518 52.256 60.6118 52.122 60.3318 51.854C60.0558 51.586 59.9178 51.242 59.9178 50.822C59.9178 50.402 60.0558 50.058 60.3318 49.79C60.6118 49.522 60.9518 49.388 61.3518 49.388C61.7558 49.388 62.0958 49.522 62.3718 49.79C62.6478 50.058 62.7858 50.402 62.7858 50.822C62.7858 51.242 62.6478 51.586 62.3718 51.854C62.0958 52.122 61.7558 52.256 61.3518 52.256Z" fill="#928A97"/>
<path d="M10.4199 120.224C11.4979 120.224 12.3425 119.921 12.9539 119.314C13.5652 118.703 13.8709 117.849 13.8709 116.752V108.45H12.0369V116.262C12.0369 116.953 11.8712 117.494 11.5399 117.886C11.2085 118.278 10.7465 118.474 10.1539 118.474C9.52388 118.474 8.91488 118.189 8.32688 117.62L7.68988 119.139C8.45521 119.862 9.36521 120.224 10.4199 120.224ZM19.7977 120.224C20.339 120.224 20.8384 120.105 21.2957 119.867C21.7577 119.624 22.1474 119.286 22.4647 118.852V120H24.2077V112.832H22.4647V113.931C22.1894 113.516 21.8137 113.191 21.3377 112.958C20.8664 112.725 20.353 112.608 19.7977 112.608C19.107 112.608 18.4934 112.774 17.9567 113.105C17.4247 113.436 17.0047 113.889 16.6967 114.463C16.3934 115.037 16.2417 115.686 16.2417 116.409C16.2417 117.146 16.398 117.802 16.7107 118.376C17.028 118.95 17.455 119.403 17.9917 119.734C18.533 120.061 19.135 120.224 19.7977 120.224ZM20.2947 118.733C19.8654 118.733 19.4827 118.633 19.1467 118.432C18.8107 118.231 18.547 117.958 18.3557 117.613C18.1644 117.263 18.0687 116.864 18.0687 116.416C18.0687 115.968 18.1644 115.569 18.3557 115.219C18.547 114.869 18.8107 114.596 19.1467 114.4C19.4827 114.199 19.8654 114.099 20.2947 114.099C20.7287 114.099 21.1114 114.199 21.4427 114.4C21.7787 114.596 22.04 114.869 22.2267 115.219C22.418 115.564 22.5137 115.963 22.5137 116.416C22.5137 116.864 22.418 117.263 22.2267 117.613C22.04 117.963 21.7787 118.238 21.4427 118.439C21.1114 118.635 20.7287 118.733 20.2947 118.733ZM29.2719 120H30.4339L34.1019 112.832H32.0439L29.8529 117.655L27.6619 112.832H25.6039L29.2719 120ZM38.4735 120.224C39.0148 120.224 39.5141 120.105 39.9715 119.867C40.4335 119.624 40.8231 119.286 41.1405 118.852V120H42.8835V112.832H41.1405V113.931C40.8651 113.516 40.4895 113.191 40.0135 112.958C39.5421 112.725 39.0288 112.608 38.4735 112.608C37.7828 112.608 37.1691 112.774 36.6325 113.105C36.1005 113.436 35.6805 113.889 35.3725 114.463C35.0691 115.037 34.9175 115.686 34.9175 116.409C34.9175 117.146 35.0738 117.802 35.3865 118.376C35.7038 118.95 36.1308 119.403 36.6675 119.734C37.2088 120.061 37.8108 120.224 38.4735 120.224ZM38.9705 118.733C38.5411 118.733 38.1585 118.633 37.8225 118.432C37.4865 118.231 37.2228 117.958 37.0315 117.613C36.8401 117.263 36.7445 116.864 36.7445 116.416C36.7445 115.968 36.8401 115.569 37.0315 115.219C37.2228 114.869 37.4865 114.596 37.8225 114.4C38.1585 114.199 38.5411 114.099 38.9705 114.099C39.4045 114.099 39.7871 114.199 40.1185 114.4C40.4545 114.596 40.7158 114.869 40.9025 115.219C41.0938 115.564 41.1895 115.963 41.1895 116.416C41.1895 116.864 41.0938 117.263 40.9025 117.613C40.7158 117.963 40.4545 118.238 40.1185 118.439C39.7871 118.635 39.4045 118.733 38.9705 118.733ZM52.316 120.224C53.1046 120.224 53.8 120.091 54.402 119.825C55.0086 119.554 55.4823 119.165 55.823 118.656C56.1683 118.143 56.341 117.524 56.341 116.801C56.341 116.115 56.187 115.557 55.879 115.128C55.5756 114.694 55.158 114.33 54.626 114.036C54.094 113.737 53.4873 113.453 52.806 113.182C52.4606 113.047 52.141 112.914 51.847 112.783C51.5576 112.648 51.3266 112.482 51.154 112.286C50.9813 112.085 50.895 111.822 50.895 111.495C50.895 111.075 51.0513 110.706 51.364 110.389C51.6766 110.067 52.12 109.906 52.694 109.906C53.184 109.906 53.639 110.013 54.059 110.228C54.479 110.438 54.8196 110.681 55.081 110.956L55.879 109.563C55.6596 109.334 55.3796 109.12 55.039 108.919C54.703 108.718 54.3296 108.555 53.919 108.429C53.513 108.303 53.093 108.24 52.659 108.24C51.9543 108.24 51.336 108.394 50.804 108.702C50.272 109.01 49.8566 109.414 49.558 109.913C49.264 110.412 49.117 110.951 49.117 111.53C49.117 112.062 49.2383 112.515 49.481 112.888C49.7236 113.257 50.0316 113.567 50.405 113.819C50.783 114.066 51.1703 114.274 51.567 114.442C52.1223 114.671 52.61 114.888 53.03 115.093C53.45 115.294 53.7766 115.529 54.01 115.8C54.2433 116.066 54.36 116.414 54.36 116.843C54.36 117.398 54.1686 117.818 53.786 118.103C53.4033 118.383 52.9296 118.523 52.365 118.523C51.833 118.523 51.3593 118.423 50.944 118.222C50.5286 118.017 50.174 117.783 49.88 117.522C49.586 117.261 49.3526 117.041 49.18 116.864L48.214 118.348C48.3353 118.488 48.5126 118.663 48.746 118.873C48.9793 119.078 49.2663 119.286 49.607 119.496C49.9523 119.701 50.349 119.874 50.797 120.014C51.2496 120.154 51.756 120.224 52.316 120.224ZM61.9216 120.224C62.3929 120.224 62.8386 120.154 63.2586 120.014C63.6786 119.879 64.0309 119.704 64.3156 119.489L63.6856 118.313C63.2843 118.626 62.7849 118.782 62.1876 118.782C61.7116 118.782 61.2916 118.677 60.9276 118.467C60.5683 118.257 60.2859 117.975 60.0806 117.62C59.8799 117.261 59.7796 116.859 59.7796 116.416C59.7796 115.996 59.8753 115.606 60.0666 115.247C60.2626 114.888 60.5379 114.598 60.8926 114.379C61.2519 114.16 61.6789 114.05 62.1736 114.05C62.7803 114.05 63.2866 114.206 63.6926 114.519L64.3156 113.343C64.0356 113.124 63.6809 112.946 63.2516 112.811C62.8269 112.676 62.3813 112.608 61.9146 112.608C61.3499 112.608 60.8273 112.708 60.3466 112.909C59.8659 113.11 59.4459 113.385 59.0866 113.735C58.7319 114.085 58.4543 114.491 58.2536 114.953C58.0576 115.41 57.9596 115.898 57.9596 116.416C57.9596 116.953 58.0623 117.452 58.2676 117.914C58.4729 118.376 58.7576 118.78 59.1216 119.125C59.4856 119.47 59.9056 119.741 60.3816 119.937C60.8623 120.128 61.3756 120.224 61.9216 120.224ZM66.1908 120H67.9338V115.73C67.9338 115.45 68.0155 115.189 68.1788 114.946C68.3468 114.699 68.5638 114.5 68.8298 114.351C69.0958 114.197 69.3782 114.12 69.6768 114.12C69.8542 114.12 70.0432 114.148 70.2438 114.204C70.4445 114.26 70.6218 114.335 70.7758 114.428L71.4968 112.951C71.3195 112.848 71.1048 112.767 70.8528 112.706C70.6055 112.641 70.3628 112.608 70.1248 112.608C69.1775 112.608 68.4472 113.03 67.9338 113.875V112.832H66.1908V120ZM73.8128 111.362C74.1021 111.362 74.3494 111.259 74.5548 111.054C74.7601 110.844 74.8628 110.594 74.8628 110.305C74.8628 110.011 74.7601 109.761 74.5548 109.556C74.3494 109.351 74.1021 109.248 73.8128 109.248C73.5234 109.248 73.2738 109.351 73.0638 109.556C72.8584 109.761 72.7558 110.011 72.7558 110.305C72.7558 110.594 72.8584 110.844 73.0638 111.054C73.2738 111.259 73.5234 111.362 73.8128 111.362ZM72.9378 120H74.6808V112.832H72.9378V120ZM77.3881 123.64H79.1311V118.852C79.4484 119.286 79.8381 119.624 80.3001 119.867C80.7668 120.105 81.2708 120.224 81.8121 120.224C82.4888 120.224 83.0931 120.058 83.6251 119.727C84.1618 119.391 84.5841 118.936 84.8921 118.362C85.2048 117.788 85.3611 117.139 85.3611 116.416C85.3611 115.683 85.2048 115.032 84.8921 114.463C84.5794 113.889 84.1524 113.436 83.6111 113.105C83.0744 112.774 82.4608 112.608 81.7701 112.608C81.2241 112.608 80.7201 112.725 80.2581 112.958C79.7961 113.187 79.4204 113.509 79.1311 113.924V112.832H77.3881V123.64ZM81.3151 118.733C80.8858 118.733 80.5008 118.635 80.1601 118.439C79.8241 118.238 79.5604 117.963 79.3691 117.613C79.1778 117.263 79.0821 116.864 79.0821 116.416C79.0821 115.968 79.1778 115.569 79.3691 115.219C79.5604 114.869 79.8241 114.596 80.1601 114.4C80.5008 114.199 80.8858 114.099 81.3151 114.099C81.7398 114.099 82.1178 114.199 82.4491 114.4C82.7851 114.601 83.0488 114.876 83.2401 115.226C83.4361 115.571 83.5341 115.97 83.5341 116.423C83.5341 116.871 83.4384 117.27 83.2471 117.62C83.0558 117.965 82.7921 118.238 82.4561 118.439C82.1248 118.635 81.7444 118.733 81.3151 118.733ZM89.6629 120.224C90.2229 120.224 90.7293 120.096 91.1819 119.839L90.7409 118.446C90.5403 118.595 90.3186 118.67 90.0759 118.67C89.5906 118.67 89.3479 118.348 89.3479 117.704V114.155H90.9999V112.832H89.3479V110.151H87.6049V112.832H86.7299V114.155H87.6049V117.823C87.6049 118.579 87.7846 119.169 88.1439 119.594C88.5079 120.014 89.0143 120.224 89.6629 120.224Z" fill="#000C24"/>
</svg>
