<svg width="100" height="124" viewBox="0 0 100 124" fill="none" xmlns="http://www.w3.org/2000/svg">
<path d="M100 50C100 77.6142 77.6142 100 50 100C22.3858 100 0 77.6142 0 50C0 22.3858 22.3858 0 50 0C77.6142 0 100 22.3858 100 50ZM14 50C14 69.8823 30.1177 86 50 86C69.8823 86 86 69.8823 86 50C86 30.1177 69.8823 14 50 14C30.1177 14 14 30.1177 14 50Z" fill="#928A97" fill-opacity="0.27"/>
<path d="M50 100C40.7789 100 31.7374 97.45 23.8751 92.632C16.0128 87.814 9.63597 80.9156 5.44967 72.6995C1.26337 64.4834 -0.569347 55.2697 0.154133 46.077C0.877614 36.8844 4.12911 28.0708 9.54915 20.6107C14.9692 13.1507 22.3466 7.33479 30.8658 3.80602C39.385 0.277254 48.7141 -0.826918 57.8217 0.615583C66.9293 2.05808 75.4606 5.99107 82.4724 11.9797C89.4842 17.9683 94.7033 25.7793 97.5528 34.5492L84.238 38.8754C82.1864 32.5611 78.4286 26.9372 73.3801 22.6254C68.3316 18.3136 62.1891 15.4818 55.6316 14.4432C49.0742 13.4046 42.3572 14.1996 36.2234 16.7403C30.0896 19.281 24.7778 23.4685 20.8754 28.8397C16.973 34.211 14.6319 40.5567 14.111 47.1755C13.5901 53.7942 14.9096 60.4281 17.9238 66.3437C20.9379 72.2592 25.5292 77.2261 31.1901 80.695C36.8509 84.164 43.3608 86 50 86L50 100Z" fill="#000C24"/>
<path d="M34.8971 53H36.7571L41.9891 43.574V43.1H35.0951V44.48H39.6671L34.8971 53ZM47.1001 53.192C47.9081 53.192 48.6161 52.978 49.2241 52.55C49.8321 52.118 50.3061 51.516 50.6461 50.744C50.9861 49.972 51.1561 49.076 51.1561 48.056C51.1561 47.036 50.9861 46.14 50.6461 45.368C50.3061 44.596 49.8321 43.996 49.2241 43.568C48.6161 43.136 47.9081 42.92 47.1001 42.92C46.2921 42.92 45.5841 43.136 44.9761 43.568C44.3681 43.996 43.8941 44.596 43.5541 45.368C43.2141 46.14 43.0441 47.036 43.0441 48.056C43.0441 49.076 43.2141 49.972 43.5541 50.744C43.8941 51.516 44.3681 52.118 44.9761 52.55C45.5841 52.978 46.2921 53.192 47.1001 53.192ZM47.1001 51.8C46.6121 51.8 46.1881 51.648 45.8281 51.344C45.4681 51.04 45.1901 50.608 44.9941 50.048C44.7981 49.484 44.7001 48.82 44.7001 48.056C44.7001 47.288 44.7981 46.624 44.9941 46.064C45.1901 45.504 45.4681 45.072 45.8281 44.768C46.1881 44.464 46.6121 44.312 47.1001 44.312C47.5881 44.312 48.0121 44.464 48.3721 44.768C48.7321 45.072 49.0101 45.504 49.2061 46.064C49.4021 46.624 49.5001 47.288 49.5001 48.056C49.5001 48.82 49.4021 49.484 49.2061 50.048C49.0101 50.608 48.7321 51.04 48.3721 51.344C48.0121 51.648 47.5881 51.8 47.1001 51.8ZM55.2912 47.648C55.7752 47.648 56.2092 47.548 56.5932 47.348C56.9812 47.148 57.2872 46.87 57.5112 46.514C57.7392 46.158 57.8532 45.748 57.8532 45.284C57.8532 44.82 57.7392 44.41 57.5112 44.054C57.2872 43.698 56.9812 43.42 56.5932 43.22C56.2092 43.02 55.7752 42.92 55.2912 42.92C54.8072 42.92 54.3712 43.02 53.9832 43.22C53.5952 43.42 53.2872 43.698 53.0592 44.054C52.8352 44.41 52.7232 44.82 52.7232 45.284C52.7232 45.748 52.8352 46.158 53.0592 46.514C53.2872 46.87 53.5952 47.148 53.9832 47.348C54.3712 47.548 54.8072 47.648 55.2912 47.648ZM54.8472 53H55.8912L61.6512 43.1H60.6072L54.8472 53ZM55.2912 46.718C54.8872 46.718 54.5472 46.584 54.2712 46.316C53.9952 46.048 53.8572 45.704 53.8572 45.284C53.8572 44.864 53.9952 44.52 54.2712 44.252C54.5472 43.984 54.8872 43.85 55.2912 43.85C55.6952 43.85 56.0352 43.984 56.3112 44.252C56.5872 44.516 56.7252 44.86 56.7252 45.284C56.7252 45.704 56.5872 46.048 56.3112 46.316C56.0352 46.584 55.6952 46.718 55.2912 46.718ZM61.2072 53.186C61.6912 53.186 62.1272 53.086 62.5152 52.886C62.9032 52.686 63.2092 52.408 63.4332 52.052C63.6612 51.696 63.7752 51.286 63.7752 50.822C63.7752 50.358 63.6612 49.948 63.4332 49.592C63.2092 49.236 62.9032 48.958 62.5152 48.758C62.1272 48.558 61.6912 48.458 61.2072 48.458C60.7232 48.458 60.2872 48.558 59.8992 48.758C59.5112 48.958 59.2032 49.236 58.9752 49.592C58.7512 49.948 58.6392 50.358 58.6392 50.822C58.6392 51.286 58.7512 51.696 58.9752 52.052C59.2032 52.408 59.5112 52.686 59.8992 52.886C60.2872 53.086 60.7232 53.186 61.2072 53.186ZM61.2072 52.256C60.8072 52.256 60.4672 52.122 60.1872 51.854C59.9112 51.586 59.7732 51.242 59.7732 50.822C59.7732 50.402 59.9112 50.058 60.1872 49.79C60.4672 49.522 60.8072 49.388 61.2072 49.388C61.6112 49.388 61.9512 49.522 62.2272 49.79C62.5032 50.058 62.6412 50.402 62.6412 50.822C62.6412 51.242 62.5032 51.586 62.2272 51.854C61.9512 52.122 61.6112 52.256 61.2072 52.256Z" fill="#928A97"/>
<path d="M21.1772 120H23.0112V115.464H23.8302L27.2882 120H29.6122L25.8112 115.261C26.6746 115.084 27.3512 114.694 27.8412 114.092C28.3359 113.49 28.5832 112.746 28.5832 111.859C28.5832 110.786 28.2402 109.95 27.5542 109.353C26.8682 108.751 25.9419 108.45 24.7752 108.45H21.1772V120ZM23.0112 113.924V109.92H24.2362C25.0062 109.92 25.6036 110.095 26.0282 110.445C26.4576 110.795 26.6722 111.283 26.6722 111.908C26.6722 112.538 26.4576 113.033 26.0282 113.392C25.5989 113.747 25.0016 113.924 24.2362 113.924H23.0112ZM34.1967 120.224C34.9387 120.224 35.6107 120.065 36.2127 119.748C36.8194 119.426 37.293 118.98 37.6337 118.411L36.3667 117.76C35.8207 118.469 35.1277 118.824 34.2877 118.824C33.597 118.824 33.0347 118.621 32.6007 118.215C32.1714 117.809 31.9567 117.282 31.9567 116.633H37.7947C37.818 116.479 37.8297 116.362 37.8297 116.283C37.8297 115.55 37.671 114.909 37.3537 114.358C37.041 113.807 36.6024 113.378 36.0377 113.07C35.4777 112.762 34.8244 112.608 34.0777 112.608C33.3544 112.608 32.6964 112.778 32.1037 113.119C31.5157 113.46 31.0467 113.919 30.6967 114.498C30.3514 115.072 30.1787 115.716 30.1787 116.43C30.1787 117.149 30.3537 117.795 30.7037 118.369C31.0537 118.943 31.532 119.396 32.1387 119.727C32.7454 120.058 33.4314 120.224 34.1967 120.224ZM32.0337 115.541C32.1037 115.051 32.323 114.661 32.6917 114.372C33.0604 114.083 33.52 113.938 34.0707 113.938C34.598 113.938 35.046 114.085 35.4147 114.379C35.7834 114.668 36.012 115.056 36.1007 115.541H32.0337ZM42.8895 120.224C43.4308 120.224 43.9302 120.105 44.3875 119.867C44.8495 119.624 45.2392 119.286 45.5565 118.852V120H47.2995V112.832H45.5565V113.931C45.2812 113.516 44.9055 113.191 44.4295 112.958C43.9582 112.725 43.4448 112.608 42.8895 112.608C42.1988 112.608 41.5852 112.774 41.0485 113.105C40.5165 113.436 40.0965 113.889 39.7885 114.463C39.4852 115.037 39.3335 115.686 39.3335 116.409C39.3335 117.146 39.4898 117.802 39.8025 118.376C40.1198 118.95 40.5468 119.403 41.0835 119.734C41.6248 120.061 42.2268 120.224 42.8895 120.224ZM43.3865 118.733C42.9572 118.733 42.5745 118.633 42.2385 118.432C41.9025 118.231 41.6388 117.958 41.4475 117.613C41.2562 117.263 41.1605 116.864 41.1605 116.416C41.1605 115.968 41.2562 115.569 41.4475 115.219C41.6388 114.869 41.9025 114.596 42.2385 114.4C42.5745 114.199 42.9572 114.099 43.3865 114.099C43.8205 114.099 44.2032 114.199 44.5345 114.4C44.8705 114.596 45.1318 114.869 45.3185 115.219C45.5098 115.564 45.6055 115.963 45.6055 116.416C45.6055 116.864 45.5098 117.263 45.3185 117.613C45.1318 117.963 44.8705 118.238 44.5345 118.439C44.2032 118.635 43.8205 118.733 43.3865 118.733ZM53.3493 120.224C53.8207 120.224 54.2663 120.154 54.6863 120.014C55.1063 119.879 55.4587 119.704 55.7433 119.489L55.1133 118.313C54.712 118.626 54.2127 118.782 53.6153 118.782C53.1393 118.782 52.7193 118.677 52.3553 118.467C51.996 118.257 51.7137 117.975 51.5083 117.62C51.3077 117.261 51.2073 116.859 51.2073 116.416C51.2073 115.996 51.303 115.606 51.4943 115.247C51.6903 114.888 51.9657 114.598 52.3203 114.379C52.6797 114.16 53.1067 114.05 53.6013 114.05C54.208 114.05 54.7143 114.206 55.1203 114.519L55.7433 113.343C55.4633 113.124 55.1087 112.946 54.6793 112.811C54.2547 112.676 53.809 112.608 53.3423 112.608C52.7777 112.608 52.255 112.708 51.7743 112.909C51.2937 113.11 50.8737 113.385 50.5143 113.735C50.1597 114.085 49.882 114.491 49.6813 114.953C49.4853 115.41 49.3873 115.898 49.3873 116.416C49.3873 116.953 49.49 117.452 49.6953 117.914C49.9007 118.376 50.1853 118.78 50.5493 119.125C50.9133 119.47 51.3333 119.741 51.8093 119.937C52.29 120.128 52.8033 120.224 53.3493 120.224ZM59.8036 120.224C60.3636 120.224 60.8699 120.096 61.3226 119.839L60.8816 118.446C60.6809 118.595 60.4592 118.67 60.2166 118.67C59.7312 118.67 59.4886 118.348 59.4886 117.704V114.155H61.1406V112.832H59.4886V110.151H57.7456V112.832H56.8706V114.155H57.7456V117.823C57.7456 118.579 57.9252 119.169 58.2846 119.594C58.6486 120.014 59.1549 120.224 59.8036 120.224ZM65.2168 120.224C66.2948 120.224 67.1394 119.921 67.7508 119.314C68.3621 118.703 68.6678 117.849 68.6678 116.752V108.45H66.8338V116.262C66.8338 116.953 66.6681 117.494 66.3368 117.886C66.0054 118.278 65.5434 118.474 64.9508 118.474C64.3208 118.474 63.7118 118.189 63.1238 117.62L62.4868 119.139C63.2521 119.862 64.1621 120.224 65.2168 120.224ZM74.6011 120.224C75.3898 120.224 76.0851 120.091 76.6871 119.825C77.2938 119.554 77.7675 119.165 78.1081 118.656C78.4535 118.143 78.6261 117.524 78.6261 116.801C78.6261 116.115 78.4721 115.557 78.1641 115.128C77.8608 114.694 77.4431 114.33 76.9111 114.036C76.3791 113.737 75.7725 113.453 75.0911 113.182C74.7458 113.047 74.4261 112.914 74.1321 112.783C73.8428 112.648 73.6118 112.482 73.4391 112.286C73.2665 112.085 73.1801 111.822 73.1801 111.495C73.1801 111.075 73.3365 110.706 73.6491 110.389C73.9618 110.067 74.4051 109.906 74.9791 109.906C75.4691 109.906 75.9241 110.013 76.3441 110.228C76.7641 110.438 77.1048 110.681 77.3661 110.956L78.1641 109.563C77.9448 109.334 77.6648 109.12 77.3241 108.919C76.9881 108.718 76.6148 108.555 76.2041 108.429C75.7981 108.303 75.3781 108.24 74.9441 108.24C74.2395 108.24 73.6211 108.394 73.0891 108.702C72.5571 109.01 72.1418 109.414 71.8431 109.913C71.5491 110.412 71.4021 110.951 71.4021 111.53C71.4021 112.062 71.5235 112.515 71.7661 112.888C72.0088 113.257 72.3168 113.567 72.6901 113.819C73.0681 114.066 73.4555 114.274 73.8521 114.442C74.4075 114.671 74.8951 114.888 75.3151 115.093C75.7351 115.294 76.0618 115.529 76.2951 115.8C76.5285 116.066 76.6451 116.414 76.6451 116.843C76.6451 117.398 76.4538 117.818 76.0711 118.103C75.6885 118.383 75.2148 118.523 74.6501 118.523C74.1181 118.523 73.6445 118.423 73.2291 118.222C72.8138 118.017 72.4591 117.783 72.1651 117.522C71.8711 117.261 71.6378 117.041 71.4651 116.864L70.4991 118.348C70.6205 118.488 70.7978 118.663 71.0311 118.873C71.2645 119.078 71.5515 119.286 71.8921 119.496C72.2375 119.701 72.6341 119.874 73.0821 120.014C73.5348 120.154 74.0411 120.224 74.6011 120.224Z" fill="#000C24"/>
</svg>
